# xmcd
#
# Track frame offsets:
#	150
#	20812
#	40500
#	58637
#	83275
#	104025
#	128100
#	147300
#	164775
#	183075
#	197650
#	217550
#	228262
#
# Disc length: 3226 seconds
#
# Revision: 0
# Processed by: cddbd v1.4PL0 Copyright (c) Steve Scherf et al.
# Submitted via: audiograbber 1.81.01
#
DISCID=a80c980d
DTITLE=Andrea Bocelli - Il Mare Calmo Della Sera
DYEAR=1900
DGENRE=pop
TTITLE0=Il Mare Calmo Della Sera
TTITLE1=Ave Maria No Morro
TTITLE2=Vivere (Featuring Gerardina Trovato)
TTITLE3=Rapsodia
TTITLE4=La Luna Che Non C
TTITLE5=Caruso
TTITLE6=Miserere
TTITLE7=Manis Angelicus
TTITLE8=Ah, La Paterna Mano (from Macbeth)
TTITLE9=E Lucean Le Stelle (from Tosca)
TTITLE10=La Fleur Que Tu M Avais Jet e (from Carmen)
TTITLE11=L Anima Ho Stanca (from Adriana Lecouvreur)
TTITLE12=Sogno
EXTD=
EXTT0=
EXTT1=
EXTT2=
EXTT3=
EXTT4=
EXTT5=
EXTT6=
EXTT7=
EXTT8=
EXTT9=
EXTT10=
EXTT11=
EXTT12=
PLAYORDER=
